<svg xmlns="http://www.w3.org/2000/svg" version="1.1" xmlns:xlink="http://www.w3.org/1999/xlink" xmlns:svgjs="http://svgjs.com/svgjs" width="16" height="16"><svg width="16" height="16" fill="currentColor" class="bi bi-sticky" viewBox="0 0 16 16" version="1.1" id="SvgjsSvg1005" sodipodi:docname="sticky.svg" inkscape:export-filename="sticky.svg" inkscape:export-xdpi="96" inkscape:export-ydpi="96" xmlns:inkscape="http://www.inkscape.org/namespaces/inkscape" xmlns:sodipodi="http://sodipodi.sourceforge.net/DTD/sodipodi-0.dtd" xmlns="http://www.w3.org/2000/svg" xmlns:svg="http://www.w3.org/2000/svg">
  <defs id="SvgjsDefs1004"></defs>
  <sodipodi:namedview id="SvgjsSodipodi:namedview1003" pagecolor="#ffffff" bordercolor="#999999" borderopacity="1" inkscape:showpageshadow="0" inkscape:pageopacity="0" inkscape:pagecheckerboard="0" inkscape:deskcolor="#505050" showgrid="false"></sodipodi:namedview>
  <path style="display:inline;opacity:1;fill:#eff1f5;fill-opacity:1;stroke:none;stroke-width:0.3;stroke-linecap:round" d="M 9.5,9 A 0.5,0.5 0 0 0 9,9.5 v 4.292969 L 13.792969,9 Z" id="SvgjsPath1002"></path>
  <path style="display:inline;opacity:1;fill:#eff1f5;fill-opacity:1;stroke:none;stroke-width:0.3;stroke-linecap:round" d="M 2.5,2 A 0.5,0.5 0 0 0 2,2.5 v 11 A 0.5,0.5 0 0 0 2.5,14 H 8 V 9.5 A 1.5,1.5 0 0 1 9.5,8 H 14 V 2.5 A 0.5,0.5 0 0 0 13.5,2 Z" id="SvgjsPath1001"></path>
  <path d="M 2.5,1 A 1.5,1.5 0 0 0 1,2.5 v 11 A 1.5,1.5 0 0 0 2.5,15 h 6.086 a 1.5,1.5 0 0 0 1.06,-0.44 L 14.561,9.646 A 1.5,1.5 0 0 0 15,8.586 V 2.5 A 1.5,1.5 0 0 0 13.5,1 Z M 2,2.5 A 0.5,0.5 0 0 1 2.5,2 h 11 A 0.5,0.5 0 0 1 14,2.5 V 8 H 9.5 A 1.5,1.5 0 0 0 8,9.5 V 14 H 2.5 A 0.5,0.5 0 0 1 2,13.5 Z M 9,13.793 V 9.5 A 0.5,0.5 0 0 1 9.5,9 h 4.293 z" id="SvgjsPath1000" style="display:inline;fill:#4c4f69;fill-opacity:1"></path>
</svg><style>@media (prefers-color-scheme: light) { :root { filter: none; } }
</style></svg>